<svg width="37" height="37" viewBox="0 0 37 37" fill="none" xmlns="http://www.w3.org/2000/svg">
<rect x="1.5" y="1.5" width="34" height="34" rx="17" fill="#D1FADF"/>
<rect x="1.5" y="1.5" width="34" height="34" rx="17" stroke="#ECFDF3" stroke-width="3"/>
<path d="M26.5 17.7686V18.5046C26.499 20.2297 25.9404 21.9083 24.9075 23.29C23.8745 24.6718 22.4226 25.6826 20.7683 26.1717C19.1139 26.6608 17.3458 26.6021 15.7276 26.0042C14.1093 25.4064 12.7277 24.3015 11.7888 22.8542C10.8498 21.407 10.4038 19.695 10.5173 17.9736C10.6308 16.2522 11.2978 14.6136 12.4186 13.3022C13.5395 11.9908 15.0542 11.0769 16.7369 10.6967C18.4197 10.3165 20.1802 10.4904 21.756 11.1926M26.5 12.1046L18.5 20.1126L16.1 17.7126" stroke="#039855" stroke-width="2.33333" stroke-linecap="round" stroke-linejoin="round"/>
</svg>
