<svg width="37" height="37" viewBox="0 0 37 37" fill="none" xmlns="http://www.w3.org/2000/svg">
<rect x="1.5" y="1.5" width="34" height="34" rx="17" fill="#FEF0C7"/>
<rect x="1.5" y="1.5" width="34" height="34" rx="17" stroke="#FFFAEB" stroke-width="3"/>
<path d="M18.5 15.8939V19.4292M18.5 22.9646H18.5077M17.1907 11.3509L10.7052 23.8485C10.5715 24.1158 10.5008 24.4188 10.5 24.7275C10.4993 25.0361 10.5685 25.3396 10.701 25.6078C10.8334 25.8759 11.0243 26.0994 11.2548 26.2559C11.4852 26.4125 11.7472 26.4966 12.0146 26.5H24.9854C25.2528 26.4966 25.5148 26.4125 25.7452 26.2559C25.9757 26.0994 26.1666 25.8759 26.299 25.6078C26.4315 25.3396 26.5007 25.0361 26.5 24.7275C26.4992 24.4188 26.4285 24.1158 26.2948 23.8485L19.8093 11.3509C19.6728 11.0912 19.4806 10.8764 19.2513 10.7273C19.022 10.5783 18.7632 10.5 18.5 10.5C18.2368 10.5 17.978 10.5783 17.7487 10.7273C17.5194 10.8764 17.3272 11.0912 17.1907 11.3509Z" stroke="#DC6803" stroke-width="2.33333" stroke-linecap="round" stroke-linejoin="round"/>
</svg>
